<svg xmlns="http://www.w3.org/2000/svg" xmlns:xlink="http://www.w3.org/1999/xlink" xmlns:lucid="lucid" width="1820" height="1100"><g transform="translate(0 -20)" lucid:page-tab-id="0_0"><path d="M80 46a6 6 0 0 1 6-6h728a6 6 0 0 1 6 6v1048a6 6 0 0 1-6 6H86a6 6 0 0 1-6-6z" stroke="#5e5e5e" stroke-width="3" fill-opacity="0"/><use xlink:href="#a" transform="matrix(1,0,0,1,88,48) translate(326 17.57)"/><path d="M880 46a6 6 0 0 1 6-6h908a6 6 0 0 1 6 6v1048a6 6 0 0 1-6 6H886a6 6 0 0 1-6-6z" stroke="#5e5e5e" stroke-width="3" fill-opacity="0"/><use xlink:href="#b" transform="matrix(1,0,0,1,888,48) translate(398 17.57)"/><path d="M320 87.1a6 6 0 0 1 6-6h928a6 6 0 0 1 6 6V614a6 6 0 0 1-6 6H326a6 6 0 0 1-6-6z" fill="#ffd9d9"/><path d="M354.55 81.16h29.5m14.74 0h29.48m14.74 0h29.5m14.74 0h29.5m14.73 0h29.48m14.75 0l29.5-.02m14.73 0h29.5m14.74 0h29.5m14.73 0h29.5m14.74 0h29.5m14.73 0h29.5m14.74 0l29.5-.02m14.73 0h29.5m14.74 0h29.5m14.74 0h29.5m14.74 0h29.5m14.73 0h29.5m14.75 0l29.5-.02m14.73 0h29.5m14.74 0h29.5m14.73 0H1254l.94.07.9.22.88.35.8.5.72.6.6.72.5.8.37.87.23.9v14.68m0 14.66v29.32m0 14.67v29.32m0 14.65l.02 29.33m0 14.66v29.33m0 14.66v29.32m0 14.66l.02 29.34m0 14.66v29.33m0 14.66v29.3m0 14.68v29.32m.02 14.66v29.33m0 14.65v29.33m0 14.66V614l-.07.94-.22.9-.35.88-.5.8-.6.72-.72.6-.8.5-.88.37-.9.23h-14.76m-14.75 0h-29.5m-14.74 0h-29.48m-14.74 0h-29.5m-14.74 0h-29.5m-14.73 0h-29.48m-14.75.02h-29.5m-14.73 0h-29.5m-14.74 0h-29.5m-14.73 0h-29.5m-14.74 0h-29.5m-14.73 0l-29.5.02m-14.74 0h-29.5m-14.73 0h-29.5m-14.74 0h-29.5m-14.74 0h-29.5m-14.74 0h-29.5m-14.73 0l-29.5.02m-14.75 0h-29.5m-14.73 0h-29.5M385 620h-29.5m-14.73 0H326l-.94-.07-.9-.22-.88-.35-.8-.5-.72-.6-.6-.72-.5-.8-.37-.88-.23-.9v-14.67m0-14.67v-29.3m0-14.67V512.3m0-14.66l-.02-29.33m0-14.65v-29.32m0-14.66v-29.33m0-14.66l-.02-29.33m0-14.66v-29.33m0-14.67v-29.32m0-14.66V204.4m-.02-14.67V160.4m0-14.66v-29.32m0-14.66V87.1l.07-.95.22-.9.35-.88.5-.8.6-.72.72-.6.8-.5.88-.36.9-.23h14.76" stroke="#5e5e5e" stroke-width="3" fill="none"/><use xlink:href="#c" transform="matrix(1,0,0,1,328,89.09331548546936) translate(0 17.57)"/><path d="M88.07 826a6 6 0 0 1 6-6h1648a6 6 0 0 1 6 6v228a6 6 0 0 1-6 6h-1648a6 6 0 0 1-6-6z" fill="#e3fae3"/><path d="M122.84 820.07h29.7m14.86 0h29.72m14.85 0h29.7m14.87 0h29.7m14.86 0h29.7m14.87 0h29.7m14.86 0h29.7m14.87 0h29.7m14.87 0h29.7m14.86-.02h29.7m14.87 0h29.7m14.86 0h29.7m14.87 0h29.7m14.87 0h29.7m14.86 0h29.7m14.87 0h29.7m14.86 0h29.7m14.86 0h29.7m14.87 0h29.7m14.86-.02h29.7m14.86 0h29.7m14.86 0h29.7m14.87 0h29.7m14.85 0h29.72m14.85 0h29.7m14.87 0h29.7m14.85 0h29.7m14.87 0h29.7m14.86 0h29.7m14.87-.02h29.7m14.87 0h29.7m14.86 0h29.7m14.87 0h29.7m14.86 0h29.72m14.86 0h29.7m14.87 0h29.7m14.86 0h14.87l.94.07.92.22.87.35.8.5.7.6.62.72.5.8.35.88.22.9v15.27m0 15.27v30.5m.02 15.27v30.53m0 15.26l.02 30.53m0 15.25l.02 30.52m0 15.27V1054l-.07.94-.23.9-.36.88-.48.8-.6.72-.73.6-.8.5-.88.37-.9.23h-14.87m-14.86 0h-29.72m-14.85 0h-29.7m-14.87 0h-29.7m-14.86 0h-29.7m-14.87 0h-29.7m-14.86 0h-29.72m-14.85 0h-29.7m-14.87 0h-29.7m-14.86 0h-29.7m-14.87.02h-29.7m-14.86 0h-29.72m-14.85 0h-29.7m-14.87 0h-29.7m-14.86 0h-29.7m-14.87 0h-29.7m-14.86 0h-29.7m-14.86 0h-29.7m-14.87 0h-29.7m-14.86 0h-29.7m-14.86.02h-29.7m-14.86 0h-29.7m-14.87 0h-29.7m-14.86 0h-29.7m-14.86 0h-29.7m-14.87 0H614m-14.85 0h-29.7m-14.87 0h-29.7m-14.86 0H480.3m-14.85 0h-29.7m-14.87.02h-29.7m-14.86 0h-29.7m-14.87 0h-29.7m-14.86 0h-29.73m-14.85 0h-29.7m-14.87 0h-29.7m-14.86 0h-29.72m-14.86 0H94.07l-.94-.07-.92-.22-.86-.35-.8-.5-.72-.6-.6-.72-.5-.8-.36-.88-.22-.9v-15.27m0-15.27l-.02-30.5m0-15.27V948.1m-.02-15.26V902.3m0-15.25l-.02-30.52m0-15.27V826l.06-.94.22-.9.36-.88.5-.8.6-.72.72-.6.8-.5.87-.37.93-.23h14.85" stroke="#5e5e5e" stroke-width="3" fill="none"/><use xlink:href="#d" transform="matrix(1,0,0,1,96.06666666666672,828) translate(0 17.57)"/><path d="M970 646a6 6 0 0 1 6-6h318a6 6 0 0 1 6 6v388a6 6 0 0 1-6 6H976a6 6 0 0 1-6-6z" fill="#ffdda6"/><path d="M1005.44 640.07h30.37m15.2 0l30.37-.02m15.2 0h30.37m15.18 0l30.38-.02m15.2 0h30.36m15.2-.02h30.36m15.2 0H1294l.94.07.9.22.88.35.8.5.72.6.6.72.5.8.37.88.23.9v14.42m0 14.4v28.8m0 14.42l.02 28.8m0 14.4v28.8m0 14.42v28.8m0 14.4l.02 28.82m0 14.4v28.82m0 14.4l.02 28.8m0 14.42v28.8m0 14.4V1034l-.07.94-.22.9-.35.88-.5.8-.6.72-.72.6-.8.5-.88.37-.9.23h-15.2m-15.2 0h-30.36m-15.2 0l-30.37.02m-15.2 0h-30.37m-15.18 0l-30.38.02m-15.2 0h-30.36m-15.2.02h-30.36m-15.2 0H976l-.94-.07-.9-.22-.88-.35-.8-.5-.72-.6-.6-.72-.5-.8-.37-.88-.23-.9v-14.42m0-14.4v-28.8m0-14.42l-.02-28.8m0-14.4v-28.8m0-14.42v-28.8m0-14.4l-.02-28.82m0-14.4v-28.82m0-14.4l-.02-28.8m0-14.42v-28.8m0-14.4V646l.07-.94.22-.9.35-.88.5-.8.6-.72.72-.6.8-.5.88-.37.9-.23h15.2" stroke="#5e5e5e" stroke-width="3" fill="none"/><use xlink:href="#e" transform="matrix(1,0,0,1,978,648) translate(0 17.57)"/><path d="M340 646a6 6 0 0 1 6-6h328a6 6 0 0 1 6 6v366.9a6 6 0 0 1-6 6H346a6 6 0 0 1-6-6z" fill="#ffdda6"/><path d="M376.4 640.07h31.32m15.66 0l31.33-.02m15.67 0h31.33m15.66 0l31.33-.02m15.65 0h31.33m15.67-.02h31.32m15.67 0H674l.94.07.9.22.88.35.8.5.72.6.6.72.5.8.37.88.23.9v15.34m0 15.32v30.65m0 15.33l.02 30.65m0 15.33v30.65m0 15.33l.02 30.65m0 15.34v30.65m0 15.32v30.65m.02 15.33v30.65m0 15.33v15.33l-.07.95-.22.9-.35.88-.5.8-.6.72-.72.6-.8.5-.88.36-.9.23h-15.68m-15.66 0l-31.32.02m-15.66 0H565.3m-15.67 0l-31.33.02m-15.66 0H471.3m-15.65 0l-31.33.02m-15.67 0h-31.32m-15.67 0H346l-.94-.07-.9-.22-.88-.35-.8-.5-.72-.6-.6-.72-.5-.8-.37-.87-.23-.9V998.5m0-15.33v-30.66m0-15.33l-.02-30.64m0-15.33v-30.65m0-15.33l-.02-30.65m0-15.33v-30.65m0-15.33v-30.67M340 707.3v-30.65m0-15.32V646l.07-.94.22-.9.35-.88.5-.8.6-.72.72-.6.8-.5.88-.37.9-.23h15.68" stroke="#5e5e5e" stroke-width="3" fill="none"/><use xlink:href="#e" transform="matrix(1,0,0,1,348,648) translate(0 17.57)"/><path d="M1000 106a6 6 0 0 1 6-6h188a6 6 0 0 1 6 6v488a6 6 0 0 1-6 6h-188a6 6 0 0 1-6-6z" stroke="#5e5e5e" stroke-width="3" fill-opacity="0"/><use xlink:href="#f" transform="matrix(1,0,0,1,1008,108) translate(32.00000000000001 17.740000000000002)"/><path d="M500 106a6 6 0 0 1 6-6h188a6 6 0 0 1 6 6v488a6 6 0 0 1-6 6H506a6 6 0 0 1-6-6z" stroke="#5e5e5e" stroke-width="3" fill-opacity="0"/><use xlink:href="#f" transform="matrix(1,0,0,1,508,108) translate(32.00000000000001 17.740000000000002)"/><path d="M540 906a6 6 0 0 1 6-6h88a6 6 0 0 1 6 6v88a6 6 0 0 1-6 6h-88a6 6 0 0 1-6-6z" stroke="#5e5e5e" stroke-width="3" fill="#fff"/><use xlink:href="#g" transform="matrix(1,0,0,1,545,905) translate(3.000000000000007 49.75)"/><path d="M642.96 950h6.1m12.2 0h12.2m12.2 0h12.2m12.2 0h12.18m12.2 0h12.2m12.2 0h12.2m12.2 0h12.2m12.18 0h12.2m12.2 0h12.2m12.2 0h12.2m12.2 0H893m12.2 0h12.2m12.2 0h12.2m12.2 0h12.2m12.18 0h6.1" stroke="#5e5e5e" stroke-width="3" fill="none"/><path d="M643 951.5h-1.54v-3H643z" stroke="#5e5e5e" stroke-width=".05" fill="#5e5e5e"/><path d="M1000.25 950l-14.27 4.64v-9.28z" stroke="#5e5e5e" stroke-width="3" fill="#5e5e5e"/><path d="M172.93 950h347.1" stroke="#5e5e5e" stroke-width="2" fill="none"/><path d="M172.96 951h-1.03v-2h1.03z" stroke="#5e5e5e" stroke-width=".05" fill="#5e5e5e"/><path d="M535.3 950l-14.27 4.64v-9.28z" stroke="#5e5e5e" stroke-width="2" fill="#5e5e5e"/><path d="M108.07 910v80h63.86v-80zm6.38 6.16h51.1v67.68h-51.1zM140 930.64v19.92c-1.02-.32-2.04-.56-3.2-.56-5.23 0-9.57 4.16-9.57 9.2 0 5.12 4.34 9.28 9.58 9.28s9.6-4.16 9.6-9.28v-20.64l8.8 2.08 1.6-5.92zm-3.2 25.52c1.8 0 3.2 1.36 3.2 3.04 0 1.76-1.4 3.12-3.2 3.12-1.78 0-3.2-1.36-3.2-3.12 0-1.68 1.42-3.04 3.2-3.04z" stroke="#000" stroke-opacity="0"/><path d="M140 946a6 6 0 0 1 6-6h248a6 6 0 0 1 6 6v51.33a6 6 0 0 1-6 6H146a6 6 0 0 1-6-6z" stroke="#000" stroke-opacity="0" stroke-width="3" fill="#fff" fill-opacity="0"/><use xlink:href="#h" transform="matrix(1,0,0,1,145,945) translate(77 22.75)"/><use xlink:href="#i" transform="matrix(1,0,0,1,145,945) translate(59.000000000000014 43.269999999999996)"/><use xlink:href="#j" transform="matrix(1,0,0,1,145,945) translate(107 43.269999999999996)"/><path d="M1006.57 906a6 6 0 0 1 6-6h88a6 6 0 0 1 6 6v88a6 6 0 0 1-6 6h-88a6 6 0 0 1-6-6z" stroke="#5e5e5e" stroke-width="3" fill="#fff"/><use xlink:href="#k" transform="matrix(1,0,0,1,1011.5666666666666,905) translate(9.000000000000007 41.3125)"/><use xlink:href="#l" transform="matrix(1,0,0,1,1011.5666666666666,905) translate(15.000000000000004 61.832499999999996)"/><path d="M1591.47 910v80h70.68v-80zm7.07 6.16h56.54v67.68h-56.54zm28.27 14.48v19.92c-1.12-.32-2.25-.56-3.52-.56-5.8 0-10.6 4.16-10.6 9.2 0 5.12 4.8 9.28 10.6 9.28s10.6-4.16 10.6-9.28v-20.64l9.75 2.08 1.77-5.92zm-3.52 25.52c1.98 0 3.53 1.36 3.53 3.04 0 1.76-1.54 3.12-3.52 3.12s-3.54-1.36-3.54-3.12c0-1.68 1.56-3.04 3.54-3.04z" stroke="#000" stroke-opacity="0"/><path d="M1109.03 950h463.94" stroke="#5e5e5e" stroke-width="2" fill="none"/><path d="M1109.06 951h-1.03v-2h1.03z" stroke="#5e5e5e" stroke-width=".05" fill="#5e5e5e"/><path d="M1588.24 950l-14.27 4.64v-9.28z" stroke="#5e5e5e" stroke-width="2" fill="#5e5e5e"/><path d="M380 706a6 6 0 0 1 6-6h88a6 6 0 0 1 6 6v88a6 6 0 0 1-6 6h-88a6 6 0 0 1-6-6z" stroke="#5e5e5e" stroke-width="3" fill="#fff"/><use xlink:href="#m" transform="matrix(1,0,0,1,385,705) translate(-8.999999999999993 50.74)"/><path d="M730 146a6 6 0 0 1 6-6h228a6 6 0 0 1 6 6v48a6 6 0 0 1-6 6H736a6 6 0 0 1-6-6z" stroke="#000" stroke-opacity="0" stroke-width="3" fill="#fff" fill-opacity="0"/><use xlink:href="#n" transform="matrix(1,0,0,1,735,145) translate(73 19.125)"/><use xlink:href="#o" transform="matrix(1,0,0,1,735,145) translate(37.000000000000014 39.644999999999996)"/><path d="M430 802.46V944a6 6 0 0 0 6 6h84.03" stroke="#5e5e5e" stroke-width="2" fill="none"/><path d="M431 802.5h-2v-1.04h2z" stroke="#5e5e5e" stroke-width=".05" fill="#5e5e5e"/><path d="M535.3 950l-14.27 4.64v-9.28z" stroke="#5e5e5e" stroke-width="2" fill="#5e5e5e"/><path d="M1576.8 586a6 6 0 0 1 6-6h88a6 6 0 0 1 6 6v88a6 6 0 0 1-6 6h-88a6 6 0 0 1-6-6z" stroke="#5e5e5e" stroke-width="3" fill="#cfe4ff"/><use xlink:href="#p" transform="matrix(1,0,0,1,1581.812888888889,585) translate(9.000000000000007 41.82)"/><use xlink:href="#q" transform="matrix(1,0,0,1,1581.812888888889,585) translate(-2.999999999999993 59.31999999999999)"/><path d="M1160 706a6 6 0 0 1 6-6h88a6 6 0 0 1 6 6v88a6 6 0 0 1-6 6h-88a6 6 0 0 1-6-6z" stroke="#5e5e5e" stroke-width="3" fill="#fff"/><use xlink:href="#r" transform="matrix(1,0,0,1,1165,705) translate(15.000000000000004 41.3125)"/><use xlink:href="#s" transform="matrix(1,0,0,1,1165,705) translate(9.000000000000007 61.832499999999996)"/><path d="M1109.03 950H1204a6 6 0 0 0 6-6V819.97" stroke="#5e5e5e" stroke-width="2" fill="none"/><path d="M1109.06 951h-1.03v-2h1.03z" stroke="#5e5e5e" stroke-width=".05" fill="#5e5e5e"/><path d="M1210 804.7l4.64 14.27h-9.28z" stroke="#5e5e5e" stroke-width="2" fill="#5e5e5e"/><path d="M1626.8 909V699.97" stroke="#5e5e5e" stroke-width="2" fill="none"/><path d="M1627.8 910h-2v-1.03h2z" stroke="#5e5e5e" stroke-width=".05" fill="#5e5e5e"/><path d="M1626.8 684.7l4.65 14.27h-9.27z" stroke="#5e5e5e" stroke-width="2" fill="#5e5e5e"/><path d="M1262.46 750H1344a6 6 0 0 0 6-6V365.8a6 6 0 0 0-6-6h-174.03" stroke="#5e5e5e" stroke-width="2" fill="none"/><path d="M1262.5 751h-1.04v-2h1.03z" stroke="#5e5e5e" stroke-width=".05" fill="#5e5e5e"/><path d="M1154.7 359.8l14.27-4.64v9.27z" stroke="#5e5e5e" stroke-width="2" fill="#5e5e5e"/><path d="M1626.8 577.54V365.8a6 6 0 0 0-6-6h-450.83" stroke="#5e5e5e" stroke-width="2" fill="none"/><path d="M1627.8 578.54h-2v-1.03h2z" stroke="#5e5e5e" stroke-width=".05" fill="#5e5e5e"/><path d="M1154.7 359.8l14.27-4.64v9.27z" stroke="#5e5e5e" stroke-width="2" fill="#5e5e5e"/><path d="M1506.8 986a6 6 0 0 1 6-6h228a6 6 0 0 1 6 6v48a6 6 0 0 1-6 6h-228a6 6 0 0 1-6-6z" stroke="#000" stroke-opacity="0" stroke-width="3" fill="#fff" fill-opacity="0"/><use xlink:href="#t" transform="matrix(1,0,0,1,1511.812888888889,985) translate(61.00000000000001 31.625)"/><path d="M20 996a6 6 0 0 1 6-6h228a6 6 0 0 1 6 6v48a6 6 0 0 1-6 6H26a6 6 0 0 1-6-6z" stroke="#000" stroke-opacity="0" stroke-width="3" fill="#fff" fill-opacity="0"/><use xlink:href="#u" transform="matrix(1,0,0,1,25,995) translate(79 19.125)"/><use xlink:href="#v" transform="matrix(1,0,0,1,25,995) translate(79 39.644999999999996)"/><path d="M1050 165.6a6 6 0 0 1 6-6h88a6 6 0 0 1 6 6v88a6 6 0 0 1-6 6h-88a6 6 0 0 1-6-6z" stroke="#5e5e5e" stroke-width="3" fill="#fff"/><use xlink:href="#w" transform="matrix(1,0,0,1,1055,164.5972439414129) translate(27.000000000000004 49.75)"/><path d="M1050 315.8a6 6 0 0 1 6-6h88a6 6 0 0 1 6 6v88a6 6 0 0 1-6 6h-88a6 6 0 0 1-6-6z" stroke="#5e5e5e" stroke-width="3" fill="#fff"/><use xlink:href="#x" transform="matrix(1,0,0,1,1055,314.79862197070645) translate(21.000000000000004 30.220000000000006)"/><use xlink:href="#y" transform="matrix(1,0,0,1,1055,314.79862197070645) translate(9.000000000000007 50.74)"/><use xlink:href="#z" transform="matrix(1,0,0,1,1055,314.79862197070645) translate(-8.999999999999993 71.25999999999999)"/><path d="M1050 466a6 6 0 0 1 6-6h88a6 6 0 0 1 6 6v88a6 6 0 0 1-6 6h-88a6 6 0 0 1-6-6z" stroke="#5e5e5e" stroke-width="3" fill="#fff"/><use xlink:href="#A" transform="matrix(1,0,0,1,1055,465) translate(3.000000000000007 41.3125)"/><use xlink:href="#B" transform="matrix(1,0,0,1,1055,465) translate(3.000000000000007 61.832499999999996)"/><path d="M550 165.6a6 6 0 0 1 6-6h88a6 6 0 0 1 6 6v88a6 6 0 0 1-6 6h-88a6 6 0 0 1-6-6z" stroke="#5e5e5e" stroke-width="3" fill="#fff"/><use xlink:href="#C" transform="matrix(1,0,0,1,555,164.5972439414129) translate(27.000000000000004 41.3125)"/><use xlink:href="#D" transform="matrix(1,0,0,1,555,164.5972439414129) translate(9.000000000000007 61.832499999999996)"/><path d="M550 466a6 6 0 0 1 6-6h88a6 6 0 0 1 6 6v88a6 6 0 0 1-6 6h-88a6 6 0 0 1-6-6z" stroke="#5e5e5e" stroke-width="3" fill="#fff"/><use xlink:href="#E" transform="matrix(1,0,0,1,555,464.99999999999983) translate(3.000000000000007 41.3125)"/><use xlink:href="#F" transform="matrix(1,0,0,1,555,464.99999999999983) translate(9.000000000000007 61.832499999999996)"/><path d="M550 315.8a6 6 0 0 1 6-6h88a6 6 0 0 1 6 6v88a6 6 0 0 1-6 6h-88a6 6 0 0 1-6-6z" stroke="#5e5e5e" stroke-width="3" fill="#fff"/><use xlink:href="#G" transform="matrix(1,0,0,1,555,314.79862197070645) translate(21.000000000000004 30.220000000000006)"/><use xlink:href="#H" transform="matrix(1,0,0,1,555,314.79862197070645) translate(9.000000000000007 50.74)"/><use xlink:href="#I" transform="matrix(1,0,0,1,555,314.79862197070645) translate(-2.999999999999993 71.25999999999999)"/><path d="M1047.54 359.8H669.97" stroke="#5e5e5e" stroke-width="2" fill="none"/><path d="M1048.54 360.8h-1.03v-2h1.04z" stroke="#5e5e5e" stroke-width=".05" fill="#5e5e5e"/><path d="M654.7 359.8l14.27-4.64v9.27z" stroke="#5e5e5e" stroke-width="2" fill="#5e5e5e"/><path d="M1047.54 510H669.97" stroke="#5e5e5e" stroke-width="2" fill="none"/><path d="M1048.54 511h-1.03v-2h1.04z" stroke="#5e5e5e" stroke-width=".05" fill="#5e5e5e"/><path d="M654.7 510l14.27-4.64v9.28z" stroke="#5e5e5e" stroke-width="2" fill="#5e5e5e"/><path d="M1030.03 209.6H669.97" stroke="#5e5e5e" stroke-width="2" fill="none"/><path d="M1045.3 209.6l-14.27 4.63v-9.27zM654.7 209.6l14.27-4.64v9.27z" stroke="#5e5e5e" stroke-width="2" fill="#5e5e5e"/><path d="M140 315.8a6 6 0 0 1 6-6h88a6 6 0 0 1 6 6v88a6 6 0 0 1-6 6h-88a6 6 0 0 1-6-6z" stroke="#5e5e5e" stroke-width="3" fill="#f4d9ff"/><g><use xlink:href="#J" transform="matrix(1,0,0,1,145,314.79862197070645) translate(9.000000000000007 41.3125)"/><use xlink:href="#K" transform="matrix(1,0,0,1,145,314.79862197070645) translate(3.000000000000007 61.832499999999996)"/></g><path d="M547.54 359.8H259.97" stroke="#5e5e5e" stroke-width="2" fill="none"/><path d="M548.54 360.8h-1.03v-2h1.04z" stroke="#5e5e5e" stroke-width=".05" fill="#5e5e5e"/><path d="M244.7 359.8l14.27-4.64v9.27z" stroke="#5e5e5e" stroke-width="2" fill="#5e5e5e"/><path d="M430 697.54v-318.8a6 6 0 0 0-6-6H259.98" stroke="#5e5e5e" stroke-width="2" fill="none"/><path d="M431 698.54h-2v-1.03h2z" stroke="#5e5e5e" stroke-width=".05" fill="#5e5e5e"/><path d="M244.7 372.75L259 368.1v9.28z" stroke="#5e5e5e" stroke-width="2" fill="#5e5e5e"/><path d="M1331.47 946a6 6 0 0 1 6-6h248a6 6 0 0 1 6 6v51.33a6 6 0 0 1-6 6h-248a6 6 0 0 1-6-6z" stroke="#000" stroke-opacity="0" stroke-width="3" fill="#fff" fill-opacity="0"/><g><use xlink:href="#h" transform="matrix(1,0,0,1,1336.4733333333334,945) translate(77 22.75)"/><use xlink:href="#i" transform="matrix(1,0,0,1,1336.4733333333334,945) translate(35.000000000000014 43.269999999999996)"/><use xlink:href="#L" transform="matrix(1,0,0,1,1336.4733333333334,945) translate(83 43.269999999999996)"/></g><defs><path fill="#333" d="M554-464c0 206-161 276-369 272V0H45v-685c63-12 130-23 197-23 176 0 312 70 312 244zm-140 7c2-112-118-126-229-114v245c116 4 227-18 229-131" id="M"/><path fill="#333" d="M53-123h179v-473H71v-120h295v593h180V0H53v-123" id="N"/><path fill="#333" d="M313-504c124 1 210 44 210 170V0H391v-42C357-10 304 7 242 7 139 7 77-45 77-149c0-147 171-162 314-142 24-142-188-90-264-61l-17-111c46-24 130-42 203-41zm78 315c-56-13-180-26-184 40-2 35 19 42 51 42 53 0 99-19 133-39v-43" id="O"/><path fill="#333" d="M46-500h146l103 337 117-337h141L284 183l-124-33 69-165" id="P"/><path fill="#333" d="M331 4C163 4 55-85 55-251c0-161 96-257 251-257 170 0 235 119 237 294H194c19 61 70 94 148 95 57 1 113-22 151-43l49 103C484-24 418 4 331 4zm77-311c-4-74-114-112-173-61-16 14-32 33-32 61h205" id="Q"/><path fill="#333" d="M302-445c50-72 183-81 254-14l-51 113c-58-38-164-29-203 22v203h148V0H44v-121h126v-255H51v-124h251v55" id="R"/><g id="a"><use transform="matrix(0.019999999999999997,0,0,0.019999999999999997,0,0)" xlink:href="#M"/><use transform="matrix(0.019999999999999997,0,0,0.019999999999999997,11.999999999999998,0)" xlink:href="#N"/><use transform="matrix(0.019999999999999997,0,0,0.019999999999999997,23.999999999999996,0)" xlink:href="#O"/><use transform="matrix(0.019999999999999997,0,0,0.019999999999999997,35.99999999999999,0)" xlink:href="#P"/><use transform="matrix(0.019999999999999997,0,0,0.019999999999999997,47.99999999999999,0)" xlink:href="#Q"/><use transform="matrix(0.019999999999999997,0,0,0.019999999999999997,59.99999999999999,0)" xlink:href="#R"/></g><path fill="#333" d="M300 8C108 8 34-150 34-350s73-359 266-359c192 0 266 162 266 359C566-150 492 8 300 8zm0-577c-98 0-125 103-125 219-1 115 31 220 125 220 98 0 125-104 125-220 1-115-31-219-125-219" id="S"/><path fill="#333" d="M136 21c77 50 265 90 271-50-37 19-75 28-115 28C151-1 65-93 65-236c0-182 103-277 281-277 76 0 128 18 189 41V-7c9 229-321 256-460 135zm178-141c40-1 61-8 89-25v-239c-117-23-204 32-204 148 0 71 44 117 115 116" id="T"/><path fill="#333" d="M326-376c-53-1-104 31-123 67V0H70v-500h133v71c33-45 83-79 152-79 112 0 175 75 175 192V0H397v-307c2-47-29-68-71-69" id="U"/><path fill="#333" d="M50-124h187v-257H50v-119h319v376h181V0H50v-124zm243-444c-49 0-90-41-90-90s41-91 90-91 91 42 91 91-42 90-91 90" id="V"/><path fill="#333" d="M75-81l251-301H91v-118h420v82L262-119h263V0H75v-81" id="W"/><g id="b"><use transform="matrix(0.019999999999999997,0,0,0.019999999999999997,0,0)" xlink:href="#S"/><use transform="matrix(0.019999999999999997,0,0,0.019999999999999997,11.999999999999998,0)" xlink:href="#R"/><use transform="matrix(0.019999999999999997,0,0,0.019999999999999997,23.999999999999996,0)" xlink:href="#T"/><use transform="matrix(0.019999999999999997,0,0,0.019999999999999997,35.99999999999999,0)" xlink:href="#O"/><use transform="matrix(0.019999999999999997,0,0,0.019999999999999997,47.99999999999999,0)" xlink:href="#U"/><use transform="matrix(0.019999999999999997,0,0,0.019999999999999997,59.99999999999999,0)" xlink:href="#V"/><use transform="matrix(0.019999999999999997,0,0,0.019999999999999997,71.99999999999999,0)" xlink:href="#W"/><use transform="matrix(0.019999999999999997,0,0,0.019999999999999997,83.99999999999999,0)" xlink:href="#Q"/><use transform="matrix(0.019999999999999997,0,0,0.019999999999999997,95.99999999999999,0)" xlink:href="#R"/></g><path fill="#333" d="M376-127c59 0 103-19 149-44l41 126C501-8 434 10 365 10 153 10 34-130 34-350c0-171 79-282 198-336 101-45 255-24 327 26l-47 122c-48-20-77-31-134-31-130 0-197 88-197 216 0 129 66 226 195 226" id="X"/><path fill="#333" d="M305 6C148 6 59-90 59-251c0-156 90-256 240-256 156 0 242 96 242 256C541-96 454 6 305 6zm0-126c71 0 105-56 108-131 3-77-45-130-114-130s-108 58-108 130c0 77 41 131 114 131" id="Y"/><path fill="#333" d="M215-375c-13 0-22 14-21 30V0H65v-500h129v73c13-43 45-79 94-85 42 6 65 38 71 91 23-51 37-82 87-90 62 7 87 65 87 147V0H404v-344c1-17-6-31-19-31s-23 16-22 31V0H234v-344c0-18-5-31-19-31" id="Z"/><path fill="#333" d="M287-128c44 0 84-18 105-38v-334h134V0H392v-55C354-22 306 4 244 4 121 4 74-96 74-227v-273h131v277c-1 62 22 95 82 95" id="aa"/><path fill="#333" d="M356-127c49 0 81-21 122-40l51 118C467-20 424 4 345 4 175 4 71-89 71-253c0-188 147-285 351-252 25 5 55 15 90 31l-45 119c-45-18-69-25-119-25-84 0-138 46-138 126 0 83 60 127 146 127" id="ab"/><path fill="#333" d="M554 4C388 2 266-5 232-130c-17-62-12-169-13-252H46l18-118h155v-76l132-33v109h201l-18 118H351c9 110-37 255 97 255 27 0 62 2 106 2V4" id="ac"/><g id="c"><use transform="matrix(0.019999999999999997,0,0,0.019999999999999997,0,0)" xlink:href="#X"/><use transform="matrix(0.019999999999999997,0,0,0.019999999999999997,11.999999999999998,0)" xlink:href="#Y"/><use transform="matrix(0.019999999999999997,0,0,0.019999999999999997,23.999999999999996,0)" xlink:href="#Z"/><use transform="matrix(0.019999999999999997,0,0,0.019999999999999997,35.99999999999999,0)" xlink:href="#Z"/><use transform="matrix(0.019999999999999997,0,0,0.019999999999999997,47.99999999999999,0)" xlink:href="#aa"/><use transform="matrix(0.019999999999999997,0,0,0.019999999999999997,59.99999999999999,0)" xlink:href="#U"/><use transform="matrix(0.019999999999999997,0,0,0.019999999999999997,71.99999999999999,0)" xlink:href="#V"/><use transform="matrix(0.019999999999999997,0,0,0.019999999999999997,83.99999999999999,0)" xlink:href="#ab"/><use transform="matrix(0.019999999999999997,0,0,0.019999999999999997,95.99999999999999,0)" xlink:href="#O"/><use transform="matrix(0.019999999999999997,0,0,0.019999999999999997,107.99999999999999,0)" xlink:href="#ac"/><use transform="matrix(0.019999999999999997,0,0,0.019999999999999997,119.99999999999999,0)" xlink:href="#V"/><use transform="matrix(0.019999999999999997,0,0,0.019999999999999997,131.99999999999997,0)" xlink:href="#Y"/><use transform="matrix(0.019999999999999997,0,0,0.019999999999999997,143.99999999999997,0)" xlink:href="#U"/><path fill="#333" d="M-1 1h158v1H-1z"/></g><path fill="#333" d="M512-481c2 91-46 152-97 190L573 0H411L280-241c-32 7-72 7-110 7V0H27v-684c64-13 125-24 192-24 169 0 291 58 293 227zm-140 5c0-99-102-111-202-101v217c121 1 202-16 202-116" id="ad"/><path fill="#333" d="M108-344C97-531 359-523 503-473l-42 127c-39-16-95-24-148-28-34-3-80 17-39 37 92 46 238 55 240 190C517 45 199 26 86-59l48-118c48 25 106 53 175 53 26 0 57-3 57-23 0-9-10-18-30-26-91-37-221-55-228-171" id="ae"/><path fill="#333" d="M530-259C530-100 428-2 271-2c-24 0-47-3-70-9v170H69v-659h132v40c33-26 64-43 114-43 143 0 215 102 215 244zm-131 0c0-104-102-155-198-110v247c110 16 198-27 198-137" id="af"/><g id="d"><use transform="matrix(0.019999999999999997,0,0,0.019999999999999997,0,0)" xlink:href="#ad"/><use transform="matrix(0.019999999999999997,0,0,0.019999999999999997,11.999999999999998,0)" xlink:href="#Q"/><use transform="matrix(0.019999999999999997,0,0,0.019999999999999997,23.999999999999996,0)" xlink:href="#ae"/><use transform="matrix(0.019999999999999997,0,0,0.019999999999999997,35.99999999999999,0)" xlink:href="#O"/><use transform="matrix(0.019999999999999997,0,0,0.019999999999999997,47.99999999999999,0)" xlink:href="#Z"/><use transform="matrix(0.019999999999999997,0,0,0.019999999999999997,59.99999999999999,0)" xlink:href="#af"/><use transform="matrix(0.019999999999999997,0,0,0.019999999999999997,71.99999999999999,0)" xlink:href="#N"/><use transform="matrix(0.019999999999999997,0,0,0.019999999999999997,83.99999999999999,0)" xlink:href="#V"/><use transform="matrix(0.019999999999999997,0,0,0.019999999999999997,95.99999999999999,0)" xlink:href="#U"/><use transform="matrix(0.019999999999999997,0,0,0.019999999999999997,107.99999999999999,0)" xlink:href="#T"/><path fill="#333" d="M-1 1h122v1H-1z"/></g><path fill="#333" d="M42-701h515v126H373V0H233v-575H42v-126" id="ag"/><path fill="#333" d="M66-211v-133h468v133H66" id="ah"/><g id="e"><use transform="matrix(0.019999999999999997,0,0,0.019999999999999997,0,0)" xlink:href="#ag"/><use transform="matrix(0.019999999999999997,0,0,0.019999999999999997,11.999999999999998,0)" xlink:href="#V"/><use transform="matrix(0.019999999999999997,0,0,0.019999999999999997,23.999999999999996,0)" xlink:href="#Z"/><use transform="matrix(0.019999999999999997,0,0,0.019999999999999997,35.99999999999999,0)" xlink:href="#Q"/><use transform="matrix(0.019999999999999997,0,0,0.019999999999999997,47.99999999999999,0)" xlink:href="#ah"/><use transform="matrix(0.019999999999999997,0,0,0.019999999999999997,59.99999999999999,0)" xlink:href="#ab"/><use transform="matrix(0.019999999999999997,0,0,0.019999999999999997,71.99999999999999,0)" xlink:href="#R"/><use transform="matrix(0.019999999999999997,0,0,0.019999999999999997,83.99999999999999,0)" xlink:href="#V"/><use transform="matrix(0.019999999999999997,0,0,0.019999999999999997,95.99999999999999,0)" xlink:href="#ac"/><use transform="matrix(0.019999999999999997,0,0,0.019999999999999997,107.99999999999999,0)" xlink:href="#V"/><use transform="matrix(0.019999999999999997,0,0,0.019999999999999997,119.99999999999999,0)" xlink:href="#ab"/><use transform="matrix(0.019999999999999997,0,0,0.019999999999999997,131.99999999999997,0)" xlink:href="#O"/><use transform="matrix(0.019999999999999997,0,0,0.019999999999999997,143.99999999999997,0)" xlink:href="#N"/><use transform="matrix(0.019999999999999997,0,0,0.019999999999999997,155.99999999999997,0)" xlink:href="#V"/><use transform="matrix(0.019999999999999997,0,0,0.019999999999999997,167.99999999999997,0)" xlink:href="#ac"/><use transform="matrix(0.019999999999999997,0,0,0.019999999999999997,179.99999999999997,0)" xlink:href="#P"/><path fill="#333" d="M-1 1h194v1H-1z"/></g><path fill="#333" d="M196-154c22-109 52-218 72-328h71l75 330 63-548h77L467 0h-95l-68-306L237 0h-95L45-700h77" id="ai"/><path fill="#333" d="M332 5C157 5 51-77 51-251c0-161 96-258 251-258 159 0 232 113 236 277H126c9 116 91 167 211 167 55 0 120-18 161-43l27 64C477-12 401 5 332 5zm128-310c-14-92-104-156-214-125-60 17-102 60-116 125h330" id="aj"/><path fill="#333" d="M241 6C177 6 119 0 70-26v-724h73v271c37-17 85-30 137-30 157 0 256 89 256 248C536-88 412 6 241 6zm36-447c-52 0-101 12-134 34v333c160 44 323-25 320-187-2-115-75-180-186-180" id="ak"/><path fill="#333" d="M68-245v-74h463v74H68" id="al"/><path fill="#333" d="M118-359c0-167 249-158 378-112l-27 67c-35-19-89-26-144-26-59 0-120 6-126 60 5 35 47 45 81 58 73 28 161 49 206 104 15 18 23 40 23 66 2 184-291 164-407 98l28-66c50 18 112 40 176 40 59 0 123-17 124-71-14-64-98-71-156-95-66-26-156-42-156-123" id="am"/><path fill="#333" d="M304 7C148 7 59-90 59-251c0-156 89-257 239-257 156 0 240 97 240 257C538-97 453 7 304 7zm1-70c105 0 162-78 162-188 0-114-57-187-169-187-103 0-163 80-163 187 0 113 61 188 170 188" id="an"/><path fill="#333" d="M366-67c50 0 97-14 133-32l27 63C476-11 424 5 353 5 179 5 64-87 64-253c0-189 164-282 368-247 25 4 50 15 75 26l-25 66c-37-15-79-27-126-27-123 0-214 62-214 182 0 126 98 186 224 186" id="ao"/><path fill="#333" d="M130-268l288-232h113L320-329 544 0h-97L256-285 130-181V0H56v-750h74v482" id="ap"/><path fill="#333" d="M551 5C425 2 301 18 264-74c-35-86-18-237-22-357H48l10-69h184v-97l74-18v115h227l-10 69H316c2 88-5 212 8 283 17 94 111 81 227 83V5" id="aq"/><g id="f"><use transform="matrix(0.019999999999999997,0,0,0.019999999999999997,0,0)" xlink:href="#ai"/><use transform="matrix(0.019999999999999997,0,0,0.019999999999999997,11.999999999999998,0)" xlink:href="#aj"/><use transform="matrix(0.019999999999999997,0,0,0.019999999999999997,23.999999999999996,0)" xlink:href="#ak"/><use transform="matrix(0.019999999999999997,0,0,0.019999999999999997,35.99999999999999,0)" xlink:href="#al"/><use transform="matrix(0.019999999999999997,0,0,0.019999999999999997,47.99999999999999,0)" xlink:href="#am"/><use transform="matrix(0.019999999999999997,0,0,0.019999999999999997,59.99999999999999,0)" xlink:href="#an"/><use transform="matrix(0.019999999999999997,0,0,0.019999999999999997,71.99999999999999,0)" xlink:href="#ao"/><use transform="matrix(0.019999999999999997,0,0,0.019999999999999997,83.99999999999999,0)" xlink:href="#ap"/><use transform="matrix(0.019999999999999997,0,0,0.019999999999999997,95.99999999999999,0)" xlink:href="#aj"/><use transform="matrix(0.019999999999999997,0,0,0.019999999999999997,107.99999999999999,0)" xlink:href="#aq"/></g><path fill="#333" d="M77-530c-3-198 283-211 436-143l-29 68c-91-39-330-66-330 68 0 57 57 79 102 102 88 45 201 76 260 149 19 23 29 50 29 83C545 32 227 36 54-44l30-74c110 51 384 84 384-82 0-57-56-77-102-100-89-44-202-73-260-146-19-23-29-51-29-84" id="ar"/><path fill="#333" d="M237 8c-38 0-61-6-93-13v190H71v-685h73v32c47-25 95-38 144-38 148 0 238 93 238 245C526-82 414 8 237 8zm31-446c-50 0-92 15-124 37v328c30 10 50 16 89 16 136-3 221-65 221-204 0-115-73-177-186-177" id="as"/><path fill="#333" d="M441-337c-1-137-231-107-299-55l-30-64c55-28 117-51 199-50 119 2 203 50 203 169V0h-73v-79C409-37 341 1 263 0 158-2 83-42 83-143c0-154 205-168 358-142v-52zm0 113c-94-17-273-32-279 73-4 66 40 86 106 86 80 0 147-35 173-94v-65" id="at"/><path fill="#333" d="M271-395c26-77 110-132 213-101 20 6 42 16 65 29l-40 63c-24-14-55-27-85-27-84 0-128 60-153 125v237h171V0H51v-69h146v-361H60v-70h211v105" id="au"/><g id="g"><use transform="matrix(0.019999999999999997,0,0,0.019999999999999997,0,0)" xlink:href="#ar"/><use transform="matrix(0.019999999999999997,0,0,0.019999999999999997,11.999999999999998,0)" xlink:href="#as"/><use transform="matrix(0.019999999999999997,0,0,0.019999999999999997,23.999999999999996,0)" xlink:href="#aj"/><use transform="matrix(0.019999999999999997,0,0,0.019999999999999997,35.99999999999999,0)" xlink:href="#at"/><use transform="matrix(0.019999999999999997,0,0,0.019999999999999997,47.99999999999999,0)" xlink:href="#ap"/><use transform="matrix(0.019999999999999997,0,0,0.019999999999999997,59.99999999999999,0)" xlink:href="#aj"/><use transform="matrix(0.019999999999999997,0,0,0.019999999999999997,71.99999999999999,0)" xlink:href="#au"/></g><path fill="#333" d="M508-496c-2 102-53 162-121 198L549 0h-90L311-274c-51 14-120 13-184 14V0H51v-690c204-40 461-26 457 194zm-76 10c5-152-160-169-305-147v305c152 3 300-12 305-158" id="av"/><path fill="#333" d="M222-435c-55 0-77 45-77 98V0H71v-500h74v63c14-39 47-71 92-71s77 33 85 77c21-41 53-78 109-78 87 0 99 78 99 173V0h-74v-336c-2-58-1-91-41-99-45 6-69 41-69 89V0h-74v-336c1-50-13-99-50-99" id="aw"/><path fill="#333" d="M48-69h210v-611H58v-70h274v681h220V0H48v-69" id="ax"/><g id="h"><use transform="matrix(0.019999999999999997,0,0,0.019999999999999997,0,0)" xlink:href="#av"/><use transform="matrix(0.019999999999999997,0,0,0.019999999999999997,11.999999999999998,0)" xlink:href="#aj"/><use transform="matrix(0.019999999999999997,0,0,0.019999999999999997,23.999999999999996,0)" xlink:href="#am"/><use transform="matrix(0.019999999999999997,0,0,0.019999999999999997,35.99999999999999,0)" xlink:href="#at"/><use transform="matrix(0.019999999999999997,0,0,0.019999999999999997,47.99999999999999,0)" xlink:href="#aw"/><use transform="matrix(0.019999999999999997,0,0,0.019999999999999997,59.99999999999999,0)" xlink:href="#as"/><use transform="matrix(0.019999999999999997,0,0,0.019999999999999997,71.99999999999999,0)" xlink:href="#ax"/><use transform="matrix(0.019999999999999997,0,0,0.019999999999999997,83.99999999999999,0)" xlink:href="#aj"/></g><path fill="#333" d="M495-660c-81-53-232-25-226 89v71h241l-10 69H269v362h259V0H67v-69h128v-362H75l10-69h110v-81c7-116 92-174 208-174 52 0 93 17 130 40" id="ay"/><g id="i"><use transform="matrix(0.019999999999999997,0,0,0.019999999999999997,0,0)" xlink:href="#ay"/><use transform="matrix(0.019999999999999997,0,0,0.019999999999999997,11.999999999999998,0)" xlink:href="#an"/><use transform="matrix(0.019999999999999997,0,0,0.019999999999999997,23.999999999999996,0)" xlink:href="#au"/></g><g id="j"><use transform="matrix(0.019999999999999997,0,0,0.019999999999999997,0,0)" xlink:href="#am"/><use transform="matrix(0.019999999999999997,0,0,0.019999999999999997,11.999999999999998,0)" xlink:href="#as"/><use transform="matrix(0.019999999999999997,0,0,0.019999999999999997,23.999999999999996,0)" xlink:href="#aj"/><use transform="matrix(0.019999999999999997,0,0,0.019999999999999997,35.99999999999999,0)" xlink:href="#at"/><use transform="matrix(0.019999999999999997,0,0,0.019999999999999997,47.99999999999999,0)" xlink:href="#ap"/><use transform="matrix(0.019999999999999997,0,0,0.019999999999999997,59.99999999999999,0)" xlink:href="#aj"/><use transform="matrix(0.019999999999999997,0,0,0.019999999999999997,71.99999999999999,0)" xlink:href="#au"/></g><path fill="#333" d="M471-552L339-19h-76L129-555V0H53v-700h102l147 563 144-563h100V0h-75v-552" id="az"/><path fill="#333" d="M50-69h216v-361H50v-70h290v431h210V0H50v-69zm242-555c-35 0-65-30-65-65s30-65 65-65 65 30 65 65-30 65-65 65" id="aA"/><g id="k"><use transform="matrix(0.019999999999999997,0,0,0.019999999999999997,0,0)" xlink:href="#az"/><use transform="matrix(0.019999999999999997,0,0,0.019999999999999997,11.999999999999998,0)" xlink:href="#aA"/><use transform="matrix(0.019999999999999997,0,0,0.019999999999999997,23.999999999999996,0)" xlink:href="#ao"/><use transform="matrix(0.019999999999999997,0,0,0.019999999999999997,35.99999999999999,0)" xlink:href="#au"/><use transform="matrix(0.019999999999999997,0,0,0.019999999999999997,47.99999999999999,0)" xlink:href="#an"/><use transform="matrix(0.019999999999999997,0,0,0.019999999999999997,59.99999999999999,0)" xlink:href="#al"/></g><path fill="#333" d="M330-436c-90 0-149 46-183 106V0H73v-750h74v342c42-57 105-104 197-104 116 0 182 67 182 186V0h-74v-316c-1-79-44-120-122-120" id="aB"/><path fill="#333" d="M330-436c-90 0-149 46-183 106V0H73v-500h74v92c42-57 105-104 197-104 116 0 182 67 182 186V0h-74v-316c-1-79-44-120-122-120" id="aC"/><g id="l"><use transform="matrix(0.019999999999999997,0,0,0.019999999999999997,0,0)" xlink:href="#as"/><use transform="matrix(0.019999999999999997,0,0,0.019999999999999997,11.999999999999998,0)" xlink:href="#aB"/><use transform="matrix(0.019999999999999997,0,0,0.019999999999999997,23.999999999999996,0)" xlink:href="#an"/><use transform="matrix(0.019999999999999997,0,0,0.019999999999999997,35.99999999999999,0)" xlink:href="#aC"/><use transform="matrix(0.019999999999999997,0,0,0.019999999999999997,47.99999999999999,0)" xlink:href="#aj"/></g><path fill="#333" d="M70-234c0-204 168-318 389-269v-247h74V0h-74v-40C416-13 379 6 314 6 160 6 70-85 70-234zM318-64c60 0 102-19 141-44v-323c-31-10-65-15-100-15-132 0-214 81-214 209 0 107 63 173 173 173" id="aD"/><path fill="#333" d="M283-69c72 0 129-29 162-70v-361h76V0h-76v-79C417-36 357 2 285 1 144 0 75-76 76-223v-277h73v281c0 96 43 150 134 150" id="aE"/><g id="m"><use transform="matrix(0.019999999999999997,0,0,0.019999999999999997,0,0)" xlink:href="#ar"/><use transform="matrix(0.019999999999999997,0,0,0.019999999999999997,11.999999999999998,0)" xlink:href="#ao"/><use transform="matrix(0.019999999999999997,0,0,0.019999999999999997,23.999999999999996,0)" xlink:href="#aB"/><use transform="matrix(0.019999999999999997,0,0,0.019999999999999997,35.99999999999999,0)" xlink:href="#aj"/><use transform="matrix(0.019999999999999997,0,0,0.019999999999999997,47.99999999999999,0)" xlink:href="#aD"/><use transform="matrix(0.019999999999999997,0,0,0.019999999999999997,59.99999999999999,0)" xlink:href="#aE"/><use transform="matrix(0.019999999999999997,0,0,0.019999999999999997,71.99999999999999,0)" xlink:href="#ax"/><use transform="matrix(0.019999999999999997,0,0,0.019999999999999997,83.99999999999999,0)" xlink:href="#aj"/><use transform="matrix(0.019999999999999997,0,0,0.019999999999999997,95.99999999999999,0)" xlink:href="#au"/></g><path fill="#333" d="M139-577V0H63v-700h91l306 577v-577h76V0h-91" id="aF"/><path fill="#333" d="M194-113c23-125 47-263 71-387h73l76 382 42-382h80L459 0h-84l-73-373L235 0h-83L64-500h79" id="aG"/><g id="n"><use transform="matrix(0.019999999999999997,0,0,0.019999999999999997,0,0)" xlink:href="#aF"/><use transform="matrix(0.019999999999999997,0,0,0.019999999999999997,11.999999999999998,0)" xlink:href="#aj"/><use transform="matrix(0.019999999999999997,0,0,0.019999999999999997,23.999999999999996,0)" xlink:href="#aq"/><use transform="matrix(0.019999999999999997,0,0,0.019999999999999997,35.99999999999999,0)" xlink:href="#aG"/><use transform="matrix(0.019999999999999997,0,0,0.019999999999999997,47.99999999999999,0)" xlink:href="#an"/><use transform="matrix(0.019999999999999997,0,0,0.019999999999999997,59.99999999999999,0)" xlink:href="#au"/><use transform="matrix(0.019999999999999997,0,0,0.019999999999999997,71.99999999999999,0)" xlink:href="#ap"/></g><path fill="#333" d="M362-65c66 0 116-21 161-52l37 62C482 3 346 34 236-14 117-67 39-178 39-350c0-171 77-282 195-336 100-46 230-20 304 29l-41 57c-39-23-81-38-135-38-161 0-248 121-248 288S200-65 362-65" id="aH"/><g id="o"><use transform="matrix(0.019999999999999997,0,0,0.019999999999999997,0,0)" xlink:href="#aH"/><use transform="matrix(0.019999999999999997,0,0,0.019999999999999997,11.999999999999998,0)" xlink:href="#an"/><use transform="matrix(0.019999999999999997,0,0,0.019999999999999997,23.999999999999996,0)" xlink:href="#aw"/><use transform="matrix(0.019999999999999997,0,0,0.019999999999999997,35.99999999999999,0)" xlink:href="#aw"/><use transform="matrix(0.019999999999999997,0,0,0.019999999999999997,47.99999999999999,0)" xlink:href="#aE"/><use transform="matrix(0.019999999999999997,0,0,0.019999999999999997,59.99999999999999,0)" xlink:href="#aC"/><use transform="matrix(0.019999999999999997,0,0,0.019999999999999997,71.99999999999999,0)" xlink:href="#aA"/><use transform="matrix(0.019999999999999997,0,0,0.019999999999999997,83.99999999999999,0)" xlink:href="#ao"/><use transform="matrix(0.019999999999999997,0,0,0.019999999999999997,95.99999999999999,0)" xlink:href="#at"/><use transform="matrix(0.019999999999999997,0,0,0.019999999999999997,107.99999999999999,0)" xlink:href="#aq"/><use transform="matrix(0.019999999999999997,0,0,0.019999999999999997,119.99999999999999,0)" xlink:href="#aA"/><use transform="matrix(0.019999999999999997,0,0,0.019999999999999997,131.99999999999997,0)" xlink:href="#an"/><use transform="matrix(0.019999999999999997,0,0,0.019999999999999997,143.99999999999997,0)" xlink:href="#aC"/></g><path fill="#333" d="M69-512c-9-223 317-233 474-145l-51 120c-39-20-110-42-167-42-73 0-150 63-71 105 95 50 232 85 287 178 13 22 20 48 20 78C563-18 355 34 164-14 119-26 77-40 38-57l53-127c51 26 134 47 206 50 79 4 156-67 83-120-105-77-304-85-311-258" id="aI"/><g id="p"><use transform="matrix(0.019999999999999997,0,0,0.019999999999999997,0,0)" xlink:href="#aI"/><use transform="matrix(0.019999999999999997,0,0,0.019999999999999997,11.999999999999998,0)" xlink:href="#V"/><use transform="matrix(0.019999999999999997,0,0,0.019999999999999997,23.999999999999996,0)" xlink:href="#T"/><use transform="matrix(0.019999999999999997,0,0,0.019999999999999997,35.99999999999999,0)" xlink:href="#U"/><use transform="matrix(0.019999999999999997,0,0,0.019999999999999997,47.99999999999999,0)" xlink:href="#O"/><use transform="matrix(0.019999999999999997,0,0,0.019999999999999997,59.99999999999999,0)" xlink:href="#N"/><path fill="#333" d="M-1 1h74v1H-1z"/></g><path fill="#333" d="M386-168H212L173 0H30l170-701h190L570 0H424zM243-294h108l-58-265" id="aJ"/><g id="q"><use transform="matrix(0.019999999999999997,0,0,0.019999999999999997,0,0)" xlink:href="#aJ"/><use transform="matrix(0.019999999999999997,0,0,0.019999999999999997,11.999999999999998,0)" xlink:href="#U"/><use transform="matrix(0.019999999999999997,0,0,0.019999999999999997,23.999999999999996,0)" xlink:href="#O"/><use transform="matrix(0.019999999999999997,0,0,0.019999999999999997,35.99999999999999,0)" xlink:href="#N"/><use transform="matrix(0.019999999999999997,0,0,0.019999999999999997,47.99999999999999,0)" xlink:href="#P"/><use transform="matrix(0.019999999999999997,0,0,0.019999999999999997,59.99999999999999,0)" xlink:href="#ae"/><use transform="matrix(0.019999999999999997,0,0,0.019999999999999997,71.99999999999999,0)" xlink:href="#V"/><use transform="matrix(0.019999999999999997,0,0,0.019999999999999997,83.99999999999999,0)" xlink:href="#ae"/><path fill="#333" d="M-1 1h98v1H-1z"/></g><path fill="#333" d="M53-700h493v71H342V0h-76v-629H53v-71" id="aK"/><g id="r"><use transform="matrix(0.019999999999999997,0,0,0.019999999999999997,0,0)" xlink:href="#aK"/><use transform="matrix(0.019999999999999997,0,0,0.019999999999999997,11.999999999999998,0)" xlink:href="#aA"/><use transform="matrix(0.019999999999999997,0,0,0.019999999999999997,23.999999999999996,0)" xlink:href="#aw"/><use transform="matrix(0.019999999999999997,0,0,0.019999999999999997,35.99999999999999,0)" xlink:href="#aj"/><use transform="matrix(0.019999999999999997,0,0,0.019999999999999997,47.99999999999999,0)" xlink:href="#al"/></g><g id="s"><use transform="matrix(0.019999999999999997,0,0,0.019999999999999997,0,0)" xlink:href="#am"/><use transform="matrix(0.019999999999999997,0,0,0.019999999999999997,11.999999999999998,0)" xlink:href="#aq"/><use transform="matrix(0.019999999999999997,0,0,0.019999999999999997,23.999999999999996,0)" xlink:href="#at"/><use transform="matrix(0.019999999999999997,0,0,0.019999999999999997,35.99999999999999,0)" xlink:href="#aw"/><use transform="matrix(0.019999999999999997,0,0,0.019999999999999997,47.99999999999999,0)" xlink:href="#as"/><use transform="matrix(0.019999999999999997,0,0,0.019999999999999997,59.99999999999999,0)" xlink:href="#am"/></g><path fill="#333" d="M124 71c108 66 354 70 334-111-43 25-83 41-144 41C162 1 66-80 66-234c0-184 105-281 286-281 73 0 124 14 179 35v465c-1 175-185 229-355 187-34-8-62-23-86-41zM315-68c62 0 100-20 143-47v-315c-33-9-58-16-99-15-136 3-216 72-218 211-2 109 68 166 174 166" id="aL"/><g id="t"><use transform="matrix(0.019999999999999997,0,0,0.019999999999999997,0,0)" xlink:href="#av"/><use transform="matrix(0.019999999999999997,0,0,0.019999999999999997,11.999999999999998,0)" xlink:href="#aj"/><use transform="matrix(0.019999999999999997,0,0,0.019999999999999997,23.999999999999996,0)" xlink:href="#ao"/><use transform="matrix(0.019999999999999997,0,0,0.019999999999999997,35.99999999999999,0)" xlink:href="#an"/><use transform="matrix(0.019999999999999997,0,0,0.019999999999999997,47.99999999999999,0)" xlink:href="#au"/><use transform="matrix(0.019999999999999997,0,0,0.019999999999999997,59.99999999999999,0)" xlink:href="#aD"/><use transform="matrix(0.019999999999999997,0,0,0.019999999999999997,71.99999999999999,0)" xlink:href="#aA"/><use transform="matrix(0.019999999999999997,0,0,0.019999999999999997,83.99999999999999,0)" xlink:href="#aC"/><use transform="matrix(0.019999999999999997,0,0,0.019999999999999997,95.99999999999999,0)" xlink:href="#aL"/></g><g id="u"><use transform="matrix(0.019999999999999997,0,0,0.019999999999999997,0,0)" xlink:href="#aK"/><use transform="matrix(0.019999999999999997,0,0,0.019999999999999997,11.999999999999998,0)" xlink:href="#at"/><use transform="matrix(0.019999999999999997,0,0,0.019999999999999997,23.999999999999996,0)" xlink:href="#au"/><use transform="matrix(0.019999999999999997,0,0,0.019999999999999997,35.99999999999999,0)" xlink:href="#aL"/><use transform="matrix(0.019999999999999997,0,0,0.019999999999999997,47.99999999999999,0)" xlink:href="#aj"/><use transform="matrix(0.019999999999999997,0,0,0.019999999999999997,59.99999999999999,0)" xlink:href="#aq"/></g><g id="v"><use transform="matrix(0.019999999999999997,0,0,0.019999999999999997,0,0)" xlink:href="#ar"/><use transform="matrix(0.019999999999999997,0,0,0.019999999999999997,11.999999999999998,0)" xlink:href="#aA"/><use transform="matrix(0.019999999999999997,0,0,0.019999999999999997,23.999999999999996,0)" xlink:href="#aL"/><use transform="matrix(0.019999999999999997,0,0,0.019999999999999997,35.99999999999999,0)" xlink:href="#aC"/><use transform="matrix(0.019999999999999997,0,0,0.019999999999999997,47.99999999999999,0)" xlink:href="#at"/><use transform="matrix(0.019999999999999997,0,0,0.019999999999999997,59.99999999999999,0)" xlink:href="#ax"/></g><path fill="#333" d="M543-477c0 220-188 278-411 259V0H56v-690c56-10 117-18 180-18 175 2 307 57 307 231zm-76 10c3-167-174-186-335-163v345c167 17 333-16 335-182" id="aM"/><g id="w"><use transform="matrix(0.019999999999999997,0,0,0.019999999999999997,0,0)" xlink:href="#aF"/><use transform="matrix(0.019999999999999997,0,0,0.019999999999999997,11.999999999999998,0)" xlink:href="#aK"/><use transform="matrix(0.019999999999999997,0,0,0.019999999999999997,23.999999999999996,0)" xlink:href="#aM"/></g><g id="x"><use transform="matrix(0.019999999999999997,0,0,0.019999999999999997,0,0)" xlink:href="#ar"/><use transform="matrix(0.019999999999999997,0,0,0.019999999999999997,11.999999999999998,0)" xlink:href="#ao"/><use transform="matrix(0.019999999999999997,0,0,0.019999999999999997,23.999999999999996,0)" xlink:href="#at"/><use transform="matrix(0.019999999999999997,0,0,0.019999999999999997,35.99999999999999,0)" xlink:href="#aC"/></g><g id="y"><use transform="matrix(0.019999999999999997,0,0,0.019999999999999997,0,0)" xlink:href="#av"/><use transform="matrix(0.019999999999999997,0,0,0.019999999999999997,11.999999999999998,0)" xlink:href="#aj"/><use transform="matrix(0.019999999999999997,0,0,0.019999999999999997,23.999999999999996,0)" xlink:href="#am"/><use transform="matrix(0.019999999999999997,0,0,0.019999999999999997,35.99999999999999,0)" xlink:href="#aE"/><use transform="matrix(0.019999999999999997,0,0,0.019999999999999997,47.99999999999999,0)" xlink:href="#ax"/><use transform="matrix(0.019999999999999997,0,0,0.019999999999999997,59.99999999999999,0)" xlink:href="#aq"/></g><path fill="#333" d="M149 0H73v-700h454v71H149v256h350v71H149V0" id="aN"/><g id="z"><use transform="matrix(0.019999999999999997,0,0,0.019999999999999997,0,0)" xlink:href="#aN"/><use transform="matrix(0.019999999999999997,0,0,0.019999999999999997,11.999999999999998,0)" xlink:href="#an"/><use transform="matrix(0.019999999999999997,0,0,0.019999999999999997,23.999999999999996,0)" xlink:href="#au"/><use transform="matrix(0.019999999999999997,0,0,0.019999999999999997,35.99999999999999,0)" xlink:href="#aG"/><use transform="matrix(0.019999999999999997,0,0,0.019999999999999997,47.99999999999999,0)" xlink:href="#at"/><use transform="matrix(0.019999999999999997,0,0,0.019999999999999997,59.99999999999999,0)" xlink:href="#au"/><use transform="matrix(0.019999999999999997,0,0,0.019999999999999997,71.99999999999999,0)" xlink:href="#aD"/><use transform="matrix(0.019999999999999997,0,0,0.019999999999999997,83.99999999999999,0)" xlink:href="#aj"/><use transform="matrix(0.019999999999999997,0,0,0.019999999999999997,95.99999999999999,0)" xlink:href="#au"/></g><g id="A"><use transform="matrix(0.019999999999999997,0,0,0.019999999999999997,0,0)" xlink:href="#ar"/><use transform="matrix(0.019999999999999997,0,0,0.019999999999999997,11.999999999999998,0)" xlink:href="#aj"/><use transform="matrix(0.019999999999999997,0,0,0.019999999999999997,23.999999999999996,0)" xlink:href="#am"/><use transform="matrix(0.019999999999999997,0,0,0.019999999999999997,35.99999999999999,0)" xlink:href="#am"/><use transform="matrix(0.019999999999999997,0,0,0.019999999999999997,47.99999999999999,0)" xlink:href="#aA"/><use transform="matrix(0.019999999999999997,0,0,0.019999999999999997,59.99999999999999,0)" xlink:href="#an"/><use transform="matrix(0.019999999999999997,0,0,0.019999999999999997,71.99999999999999,0)" xlink:href="#aC"/></g><g id="B"><use transform="matrix(0.019999999999999997,0,0,0.019999999999999997,0,0)" xlink:href="#az"/><use transform="matrix(0.019999999999999997,0,0,0.019999999999999997,11.999999999999998,0)" xlink:href="#at"/><use transform="matrix(0.019999999999999997,0,0,0.019999999999999997,23.999999999999996,0)" xlink:href="#aC"/><use transform="matrix(0.019999999999999997,0,0,0.019999999999999997,35.99999999999999,0)" xlink:href="#at"/><use transform="matrix(0.019999999999999997,0,0,0.019999999999999997,47.99999999999999,0)" xlink:href="#aL"/><use transform="matrix(0.019999999999999997,0,0,0.019999999999999997,59.99999999999999,0)" xlink:href="#aj"/><use transform="matrix(0.019999999999999997,0,0,0.019999999999999997,71.99999999999999,0)" xlink:href="#au"/></g><g id="C"><use transform="matrix(0.019999999999999997,0,0,0.019999999999999997,0,0)" xlink:href="#aF"/><use transform="matrix(0.019999999999999997,0,0,0.019999999999999997,11.999999999999998,0)" xlink:href="#aK"/><use transform="matrix(0.019999999999999997,0,0,0.019999999999999997,23.999999999999996,0)" xlink:href="#aM"/></g><g id="D"><use transform="matrix(0.019999999999999997,0,0,0.019999999999999997,0,0)" xlink:href="#aH"/><use transform="matrix(0.019999999999999997,0,0,0.019999999999999997,11.999999999999998,0)" xlink:href="#ax"/><use transform="matrix(0.019999999999999997,0,0,0.019999999999999997,23.999999999999996,0)" xlink:href="#aA"/><use transform="matrix(0.019999999999999997,0,0,0.019999999999999997,35.99999999999999,0)" xlink:href="#aj"/><use transform="matrix(0.019999999999999997,0,0,0.019999999999999997,47.99999999999999,0)" xlink:href="#aC"/><use transform="matrix(0.019999999999999997,0,0,0.019999999999999997,59.99999999999999,0)" xlink:href="#aq"/></g><g id="E"><use transform="matrix(0.019999999999999997,0,0,0.019999999999999997,0,0)" xlink:href="#ar"/><use transform="matrix(0.019999999999999997,0,0,0.019999999999999997,11.999999999999998,0)" xlink:href="#aj"/><use transform="matrix(0.019999999999999997,0,0,0.019999999999999997,23.999999999999996,0)" xlink:href="#am"/><use transform="matrix(0.019999999999999997,0,0,0.019999999999999997,35.99999999999999,0)" xlink:href="#am"/><use transform="matrix(0.019999999999999997,0,0,0.019999999999999997,47.99999999999999,0)" xlink:href="#aA"/><use transform="matrix(0.019999999999999997,0,0,0.019999999999999997,59.99999999999999,0)" xlink:href="#an"/><use transform="matrix(0.019999999999999997,0,0,0.019999999999999997,71.99999999999999,0)" xlink:href="#aC"/></g><g id="F"><use transform="matrix(0.019999999999999997,0,0,0.019999999999999997,0,0)" xlink:href="#aH"/><use transform="matrix(0.019999999999999997,0,0,0.019999999999999997,11.999999999999998,0)" xlink:href="#ax"/><use transform="matrix(0.019999999999999997,0,0,0.019999999999999997,23.999999999999996,0)" xlink:href="#aA"/><use transform="matrix(0.019999999999999997,0,0,0.019999999999999997,35.99999999999999,0)" xlink:href="#aj"/><use transform="matrix(0.019999999999999997,0,0,0.019999999999999997,47.99999999999999,0)" xlink:href="#aC"/><use transform="matrix(0.019999999999999997,0,0,0.019999999999999997,59.99999999999999,0)" xlink:href="#aq"/></g><g id="G"><use transform="matrix(0.019999999999999997,0,0,0.019999999999999997,0,0)" xlink:href="#ar"/><use transform="matrix(0.019999999999999997,0,0,0.019999999999999997,11.999999999999998,0)" xlink:href="#ao"/><use transform="matrix(0.019999999999999997,0,0,0.019999999999999997,23.999999999999996,0)" xlink:href="#at"/><use transform="matrix(0.019999999999999997,0,0,0.019999999999999997,35.99999999999999,0)" xlink:href="#aC"/></g><g id="H"><use transform="matrix(0.019999999999999997,0,0,0.019999999999999997,0,0)" xlink:href="#av"/><use transform="matrix(0.019999999999999997,0,0,0.019999999999999997,11.999999999999998,0)" xlink:href="#aj"/><use transform="matrix(0.019999999999999997,0,0,0.019999999999999997,23.999999999999996,0)" xlink:href="#am"/><use transform="matrix(0.019999999999999997,0,0,0.019999999999999997,35.99999999999999,0)" xlink:href="#aE"/><use transform="matrix(0.019999999999999997,0,0,0.019999999999999997,47.99999999999999,0)" xlink:href="#ax"/><use transform="matrix(0.019999999999999997,0,0,0.019999999999999997,59.99999999999999,0)" xlink:href="#aq"/></g><path fill="#333" d="M333 0h-67L69-500h85l147 400 147-400h82" id="aO"/><g id="I"><use transform="matrix(0.019999999999999997,0,0,0.019999999999999997,0,0)" xlink:href="#av"/><use transform="matrix(0.019999999999999997,0,0,0.019999999999999997,11.999999999999998,0)" xlink:href="#aj"/><use transform="matrix(0.019999999999999997,0,0,0.019999999999999997,23.999999999999996,0)" xlink:href="#ao"/><use transform="matrix(0.019999999999999997,0,0,0.019999999999999997,35.99999999999999,0)" xlink:href="#aj"/><use transform="matrix(0.019999999999999997,0,0,0.019999999999999997,47.99999999999999,0)" xlink:href="#aA"/><use transform="matrix(0.019999999999999997,0,0,0.019999999999999997,59.99999999999999,0)" xlink:href="#aO"/><use transform="matrix(0.019999999999999997,0,0,0.019999999999999997,71.99999999999999,0)" xlink:href="#aj"/><use transform="matrix(0.019999999999999997,0,0,0.019999999999999997,83.99999999999999,0)" xlink:href="#au"/></g><path fill="#333" d="M195-706c227 0 354 124 356 356C553-106 427 8 189 8 144 8 89 2 48-6v-684c43-9 99-16 147-16zm280 356c0-210-139-308-351-277v557c220 29 351-63 351-280" id="aP"/><g id="J"><use transform="matrix(0.019999999999999997,0,0,0.019999999999999997,0,0)" xlink:href="#aP"/><use transform="matrix(0.019999999999999997,0,0,0.019999999999999997,11.999999999999998,0)" xlink:href="#aj"/><use transform="matrix(0.019999999999999997,0,0,0.019999999999999997,23.999999999999996,0)" xlink:href="#aD"/><use transform="matrix(0.019999999999999997,0,0,0.019999999999999997,35.99999999999999,0)" xlink:href="#aE"/><use transform="matrix(0.019999999999999997,0,0,0.019999999999999997,47.99999999999999,0)" xlink:href="#ao"/><use transform="matrix(0.019999999999999997,0,0,0.019999999999999997,59.99999999999999,0)" xlink:href="#aj"/><path fill="#333" d="M-1 1h74v1H-1z"/></g><path fill="#333" d="M144-700v629h387V0H68v-700h76" id="aQ"/><path fill="#333" d="M69-500h82l162 389 147-389h77L260 204l-66-18 81-212" id="aR"/><g id="K"><use transform="matrix(0.019999999999999997,0,0,0.019999999999999997,0,0)" xlink:href="#aQ"/><use transform="matrix(0.019999999999999997,0,0,0.019999999999999997,11.999999999999998,0)" xlink:href="#at"/><use transform="matrix(0.019999999999999997,0,0,0.019999999999999997,23.999999999999996,0)" xlink:href="#aq"/><use transform="matrix(0.019999999999999997,0,0,0.019999999999999997,35.99999999999999,0)" xlink:href="#aj"/><use transform="matrix(0.019999999999999997,0,0,0.019999999999999997,47.99999999999999,0)" xlink:href="#aC"/><use transform="matrix(0.019999999999999997,0,0,0.019999999999999997,59.99999999999999,0)" xlink:href="#ao"/><use transform="matrix(0.019999999999999997,0,0,0.019999999999999997,71.99999999999999,0)" xlink:href="#aR"/><path fill="#333" d="M-1 1h86v1H-1z"/></g><g id="L"><use transform="matrix(0.019999999999999997,0,0,0.019999999999999997,0,0)" xlink:href="#aG"/><use transform="matrix(0.019999999999999997,0,0,0.019999999999999997,11.999999999999998,0)" xlink:href="#aj"/><use transform="matrix(0.019999999999999997,0,0,0.019999999999999997,23.999999999999996,0)" xlink:href="#ak"/><use transform="matrix(0.019999999999999997,0,0,0.019999999999999997,35.99999999999999,0)" xlink:href="#al"/><use transform="matrix(0.019999999999999997,0,0,0.019999999999999997,47.99999999999999,0)" xlink:href="#ak"/><use transform="matrix(0.019999999999999997,0,0,0.019999999999999997,59.99999999999999,0)" xlink:href="#au"/><use transform="matrix(0.019999999999999997,0,0,0.019999999999999997,71.99999999999999,0)" xlink:href="#an"/><use transform="matrix(0.019999999999999997,0,0,0.019999999999999997,83.99999999999999,0)" xlink:href="#aG"/><use transform="matrix(0.019999999999999997,0,0,0.019999999999999997,95.99999999999999,0)" xlink:href="#am"/><use transform="matrix(0.019999999999999997,0,0,0.019999999999999997,107.99999999999999,0)" xlink:href="#aj"/><use transform="matrix(0.019999999999999997,0,0,0.019999999999999997,119.99999999999999,0)" xlink:href="#au"/></g></defs></g></svg>